<svg aria-hidden="true" style="position: absolute; width: 0; height: 0; overflow: hidden;" version="1.1" xmlns="http://www.w3.org/2000/svg" xmlns:xlink="http://www.w3.org/1999/xlink">
<defs>
<symbol id="icon-moon" viewBox="0 0 32 32">
<path d="M13.216 4.223c-4.788 1.132-8.53 5.12-9.198 10.184-0.793 6.012 2.991 11.682 8.848 13.255 4.757 1.278 9.685-0.467 12.615-4.168-4.689 0.43-9.373-1.753-12.009-5.897s-2.631-9.31-0.256-13.375zM16.191 0.889h0.403c0.621 0 1.179 0.38 1.406 0.959s0.077 1.237-0.378 1.66c-3.472 3.226-4.145 8.47-1.601 12.469s7.58 5.61 11.973 3.831c0.565-0.229 1.212-0.096 1.641 0.337s0.556 1.081 0.322 1.644c-2.909 7-10.555 10.761-17.875 8.794s-12.051-9.054-11.060-16.569c0.991-7.515 7.397-13.133 14.978-13.135 0.064 0 0.129 0.004 0.192 0.012z"></path>
</symbol>
<symbol id="icon-fwhite" viewBox="0 0 120 32">
<path fill="#fff" style="fill: var(--color1, #fff)" d="M5.637 1.354c-0.73 0.006-1.46 0.012-2.191 0.019-0.001 1.344-0.002 2.688-0.003 4.033-0 0.196-0.001 0.392-0.001 0.588-0.001 1.073-0.002 2.147-0.002 3.22 0.524-0.031 1.049-0.061 1.574-0.091 1.316-0.075 2.633-0.147 3.949-0.217-0.001 0.442-0.002 0.884-0.002 1.327-1.29 0.078-2.579 0.159-3.868 0.243-0.551 0.036-1.103 0.073-1.654 0.11-0.001 0.728-0.001 1.456-0.002 2.184-0 0.159-0 0.317-0.001 0.476 0 0.242-0 0.485-0 0.728-0.001 0.467-0.001 0.934-0.001 1.4-0.001 1.83-0.003 3.66-0.004 5.489-1.144 0.152-2.288 0.309-3.431 0.471 0-1.861 0-3.723 0-5.584 0-0.487 0-0.974 0-1.46 0-0.41 0-0.821 0-1.231 0-2.52 0-5.040 0-7.56 0-1.833 0-3.665 0-5.498 3.955 0 7.91 0 11.865 0-0.001 0.435-0.002 0.87-0.003 1.305-2.075 0.015-4.15 0.032-6.225 0.049z"></path>
<path fill="#fff" style="fill: var(--color1, #fff)" d="M19.057 6.614c-0.458 0.015-0.915 0.030-1.373 0.046-0.002 0.799-0.004 1.598-0.007 2.397-0 0.127-0 0.254-0.001 0.381-0.002 0.648-0.003 1.296-0.005 1.943 0.313-0.018 0.627-0.037 0.94-0.054 0.984-0.056 1.968-0.111 2.953-0.163-0.001 0.41-0.002 0.819-0.004 1.229-0.966 0.057-1.931 0.116-2.896 0.177-0.332 0.021-0.665 0.043-0.997 0.064-0.001 0.399-0.002 0.799-0.004 1.199-0 0.097-0 0.194-0.001 0.291-0 0.163-0.001 0.327-0.001 0.49-0.001 0.303-0.002 0.605-0.003 0.908-0.002 0.835-0.004 1.67-0.007 2.506 0.445-0.041 0.89-0.082 1.334-0.121 1.523-0.137 3.046-0.266 4.57-0.388-0.001 0.406-0.002 0.812-0.004 1.218-2.903 0.247-5.805 0.524-8.704 0.832 0.003-1.272 0.006-2.543 0.010-3.815 0.001-0.307 0.002-0.614 0.002-0.922 0.001-0.264 0.001-0.528 0.002-0.793 0.004-1.622 0.008-3.244 0.012-4.865 0.003-1.235 0.006-2.47 0.009-3.705 2.915-0.086 5.831-0.164 8.748-0.233-0.002 0.412-0.003 0.823-0.004 1.235-1.524 0.045-3.048 0.092-4.572 0.143z"></path>
<path fill="#fff" style="fill: var(--color1, #fff)" d="M28.124 18.388c0.004-1.199 0.007-2.399 0.011-3.599 0.006-2.042 0.013-4.084 0.019-6.125 0.003-1.171 0.007-2.342 0.011-3.513 0.928-0.019 1.857-0.038 2.786-0.055-0.012 3.965-0.024 7.931-0.036 11.896 2.492-0.158 4.985-0.295 7.478-0.412-0.001 0.39-0.002 0.779-0.003 1.169-3.424 0.171-6.846 0.384-10.266 0.639z"></path>
<path fill="#fff" style="fill: var(--color1, #fff)" d="M46.29 6.030c-1.412 0.016-2.073 0.418-2.846 1.288-0.755 0.837-1.173 2.136-1.177 3.905-0.004 1.803 0.408 3.080 1.16 3.879 0.771 0.833 1.467 1.202 2.995 1.157 1.339-0.039 2.168-0.468 2.962-1.316 0.736-0.815 0.964-2.056 0.966-3.865 0.002-1.76-0.204-2.98-0.955-3.804-0.753-0.84-1.637-1.258-3.106-1.243zM46.288 17.427c-2.207 0.071-3.562-0.465-4.955-1.572-1.43-1.137-2.121-2.678-2.117-4.612 0.005-1.867 0.724-3.437 2.177-4.603 1.415-1.149 2.753-1.739 4.899-1.758 2.146-0.018 3.501 0.529 4.931 1.609 1.467 1.129 2.201 2.65 2.199 4.534-0.003 1.836-0.7 3.352-2.116 4.532-1.378 1.181-2.755 1.8-5.019 1.87z"></path>
<path fill="#fff" style="fill: var(--color1, #fff)" d="M68.845 17.318c-2.965-3.432-5.927-6.795-8.885-10.145 0 2.279 0.001 4.558 0.001 6.837 0 0.972 0 1.944 0 2.916-0.434 0-0.868 0-1.302 0.001 0-0.972 0.001-1.944 0.001-2.916 0.001-2.015 0.001-4.029 0.001-6.044 0-1.048 0.001-2.095 0.001-3.143 0.897-0.001 1.794-0 2.692 0.001 2.355 2.709 4.712 5.428 7.072 8.184-0.003-1.916-0.005-3.833-0.008-5.749-0.001-0.804-0.002-1.607-0.003-2.41 0.47 0.003 0.941 0.006 1.412 0.009 0.001 0.848 0.003 1.697 0.003 2.545 0.005 3.312 0.010 6.624 0.015 9.937-0.333-0.008-0.667-0.016-1-0.023z"></path>
<path fill="#fff" style="fill: var(--color1, #fff)" d="M75.35 17.509c-0.003-1.153-0.005-2.306-0.007-3.46-0.004-1.944-0.009-3.888-0.013-5.832-0.002-1.104-0.004-2.208-0.007-3.311 0.929 0.010 1.858 0.020 2.787 0.032 0.003 1.111 0.005 2.222 0.008 3.333 0.004 1.956 0.008 3.913 0.013 5.87 0.003 1.161 0.006 2.321 0.008 3.482-0.93-0.041-1.86-0.078-2.79-0.113z"></path>
<path fill="#fff" style="fill: var(--color1, #fff)" d="M94.049 16.828c-0.488 0.525-1.144 0.911-1.954 1.163-0.827 0.251-1.769 0.336-2.822 0.261-1.243-0.087-2.317-0.362-3.204-0.806-0.905-0.445-1.547-1.003-1.944-1.681-0.397-0.661-0.626-1.529-0.554-2.536 0.031-0.408 0.074-7.12 0.071-8.215 0.922 0.015 1.844 0.030 2.767 0.047 0.004 1.105 0.007 2.21 0.010 3.315 0.004 1.269 0.007 2.538 0.012 3.808 0.002 0.646 0.003 1.207 0.024 1.684 0.019 0.46 0.040 0.801 0.097 1.042 0.115 0.482 0.38 0.887 0.908 1.276 0.527 0.389 1.282 0.624 2.261 0.688 0.753 0.049 1.448-0.023 2.051-0.243 0.639-0.216 1.089-0.499 1.352-0.847 0.3-0.363 0.506-0.735 0.561-1.098 0.074-0.432 0.184-1.108 0.182-2.053-0.004-1.412-0.009-2.824-0.014-4.236-0.003-1.062-0.006-2.124-0.010-3.186 0.433 0.010 0.866 0.020 1.299 0.030 0.003 1.12 0.007 2.241 0.010 3.362 0.005 1.391 0.009 2.781 0.013 4.172 0.003 1.092-0.107 1.894-0.199 2.415-0.111 0.608-0.486 1.161-0.916 1.637z"></path>
<path fill="#fff" style="fill: var(--color1, #fff)" d="M119.272 21.334c-1.577-0.223-3.155-0.436-4.735-0.642-1.021-1.28-3.709-4.456-4.082-4.871-1.754-1.944-3.509-3.823-5.267-5.647-0.32 0.28-0.639 0.559-0.959 0.836 0.003 1.098 0.006 2.197 0.009 3.295 0.004 1.726 0.008 3.452 0.013 5.178-1.148-0.121-2.295-0.237-3.443-0.348-0.004-1.695-0.010-3.391-0.014-5.086-0.009-3.031-0.017-6.062-0.026-9.093-0.004-1.652-0.010-3.305-0.014-4.957 1.149 0 2.298 0 3.447 0 0.004 1.683 0.008 3.365 0.013 5.048 0.004 1.386 0.007 2.772 0.010 4.158 1.696-1.441 8.556-7.632 10.238-9.206 0.633 0 1.265 0 1.898 0-1.389 1.367-7.674 7.271-8.642 8.106 2.31 2.453 4.618 5.007 6.92 7.68 0.159 0.183 3.304 3.918 4.634 5.547z"></path>
<path fill="#fff" style="fill: var(--color1, #fff)" d="M25.382 31.392c-0.408-0.412-0.611-0.949-0.611-1.6 0-0.43 0.096-0.836 0.281-1.218s0.45-0.675 0.791-0.866c0.335-0.186 0.701-0.275 1.102-0.275 0.329 0 0.629 0.066 0.905 0.203 0.257 0.132 0.455 0.275 0.623 0.472l0.018 0.126-0.281 0.274c-0.156-0.221-0.222-0.292-0.299-0.352-0.258-0.203-0.552-0.299-0.875-0.299-0.395 0-0.701 0.155-0.934 0.472-0.228 0.322-0.354 0.794-0.354 1.433 0 0.603 0.132 1.045 0.384 1.343 0.258 0.305 0.569 0.448 0.947 0.448 0.197 0 0.407-0.047 0.629-0.149 0.162-0.078 0.3-0.197 0.503-0.501l0.329 0.328c-0.473 0.537-0.977 0.77-1.588 0.77-0.629 0-1.156-0.203-1.569-0.609z"></path>
<path fill="#fff" style="fill: var(--color1, #fff)" d="M37.874 32.001v-4.568h0.887v4.15h2.378v0.418h-3.265z"></path>
<path fill="#fff" style="fill: var(--color1, #fff)" d="M50.462 32.001v-4.568h0.887v4.568h-0.887z"></path>
<path fill="#fff" style="fill: var(--color1, #fff)" d="M64.291 32.001l-2.822-3.702v3.595h-0.413v-4.461h0.857l2.246 2.991v-2.991h0.45v4.568h-0.317z"></path>
<path fill="#fff" style="fill: var(--color1, #fff)" d="M74.321 32.001v-4.568h0.887v4.568h-0.887z"></path>
<path fill="#fff" style="fill: var(--color1, #fff)" d="M85.377 31.392c-0.408-0.412-0.611-0.949-0.611-1.6 0-0.43 0.095-0.836 0.281-1.218s0.449-0.675 0.792-0.866c0.335-0.186 0.701-0.275 1.102-0.275 0.329 0 0.628 0.066 0.904 0.203 0.257 0.132 0.456 0.275 0.623 0.472l0.018 0.126-0.282 0.274c-0.156-0.221-0.221-0.292-0.3-0.352-0.258-0.203-0.552-0.299-0.875-0.299-0.396 0-0.701 0.155-0.934 0.472-0.228 0.322-0.353 0.794-0.353 1.433 0 0.603 0.131 1.045 0.383 1.343 0.258 0.305 0.57 0.448 0.947 0.448 0.197 0 0.407-0.047 0.628-0.149 0.162-0.078 0.3-0.197 0.504-0.501l0.33 0.328c-0.474 0.537-0.977 0.77-1.588 0.77-0.629 0-1.156-0.203-1.569-0.609z"></path>
</symbol>
<symbol id="icon-arrow-white" viewBox="0 0 31 32">
<path fill="#fff" style="fill: var(--color1, #fff)" d="M5.12 16c0-0.707 0.573-1.28 1.28-1.28h17.92c0.707 0 1.28 0.573 1.28 1.28s-0.573 1.28-1.28 1.28h-17.92c-0.707 0-1.28-0.573-1.28-1.28z"></path>
<path fill="#fff" style="fill: var(--color1, #fff)" d="M25.225 15.095c0.5 0.5 0.5 1.31 0 1.81l-5.12 5.12c-0.5 0.5-1.31 0.5-1.81 0s-0.5-1.31 0-1.81l5.12-5.12c0.5-0.5 1.31-0.5 1.81 0z"></path>
<path fill="#fff" style="fill: var(--color1, #fff)" d="M18.295 9.975c0.5-0.5 1.31-0.5 1.81 0l5.12 5.12c0.5 0.5 0.5 1.31 0 1.81s-1.31 0.5-1.81 0l-5.12-5.12c-0.5-0.5-0.5-1.31 0-1.81z"></path>
</symbol>
<symbol id="icon-arrow-black" viewBox="0 0 33 32">
<path stroke-linejoin="round" stroke-linecap="round" stroke-miterlimit="4" stroke-width="2.6667" d="M7.333 16h18.667"></path>
<path stroke-linejoin="round" stroke-linecap="round" stroke-miterlimit="4" stroke-width="2.6667" d="M20.667 21.333l5.333-5.333"></path>
<path stroke-linejoin="round" stroke-linecap="round" stroke-miterlimit="4" stroke-width="2.6667" d="M20.667 10.667l5.333 5.333"></path>
</symbol>
<symbol id="icon-fblack" viewBox="0 0 119 32">
<path d="M5.637 1.353c-0.73 0.006-1.46 0.012-2.19 0.019-0.001 1.344-0.002 2.688-0.003 4.033-0 0.196-0.001 0.392-0.001 0.588-0.001 1.073-0.002 2.147-0.002 3.22 0.524-0.031 1.049-0.061 1.574-0.091 1.316-0.075 2.632-0.147 3.949-0.217-0.001 0.442-0.002 0.884-0.002 1.327-1.29 0.078-2.579 0.159-3.868 0.243-0.551 0.036-1.103 0.073-1.654 0.11-0.001 0.728-0.001 1.456-0.002 2.184-0 0.159-0 0.317-0.001 0.476 0 0.243-0 0.485-0 0.728-0.001 0.467-0.001 0.934-0.001 1.4-0.001 1.83-0.003 3.659-0.004 5.489-1.144 0.152-2.288 0.309-3.431 0.471 0-1.861 0-3.723 0-5.584 0-0.487 0-0.974 0-1.46 0-0.41 0-0.821 0-1.231 0-2.52 0-5.040 0-7.56 0-1.833 0-3.665 0-5.498 3.955 0 7.91 0 11.864 0-0.001 0.435-0.002 0.87-0.003 1.305-2.075 0.015-4.15 0.032-6.225 0.049z"></path>
<path d="M19.056 6.612c-0.458 0.015-0.915 0.030-1.373 0.046-0.002 0.799-0.004 1.598-0.007 2.397-0 0.127-0 0.254-0.001 0.381-0.002 0.648-0.003 1.296-0.005 1.943 0.314-0.018 0.627-0.037 0.94-0.054 0.984-0.056 1.968-0.111 2.953-0.163-0.001 0.409-0.002 0.819-0.004 1.229-0.966 0.057-1.931 0.116-2.896 0.177-0.332 0.021-0.665 0.043-0.997 0.064-0.001 0.399-0.002 0.799-0.003 1.199-0 0.097-0 0.194-0.001 0.291-0 0.163-0.001 0.327-0.001 0.49-0.001 0.303-0.002 0.605-0.003 0.908-0.002 0.835-0.004 1.67-0.007 2.506 0.445-0.041 0.89-0.082 1.334-0.121 1.523-0.137 3.046-0.266 4.57-0.388-0.001 0.406-0.002 0.812-0.004 1.218-2.903 0.247-5.805 0.524-8.704 0.831 0.003-1.271 0.006-2.543 0.009-3.815 0.001-0.307 0.002-0.614 0.002-0.922 0.001-0.264 0.001-0.528 0.002-0.793 0.004-1.622 0.008-3.244 0.012-4.865 0.003-1.235 0.006-2.47 0.009-3.705 2.915-0.086 5.831-0.164 8.748-0.233-0.002 0.411-0.003 0.823-0.004 1.235-1.524 0.045-3.048 0.092-4.572 0.143z"></path>
<path d="M28.124 18.387c0.004-1.199 0.007-2.399 0.011-3.599 0.006-2.042 0.013-4.084 0.019-6.125 0.003-1.171 0.007-2.342 0.011-3.513 0.928-0.019 1.857-0.038 2.785-0.055-0.012 3.965-0.024 7.931-0.036 11.896 2.492-0.158 4.985-0.295 7.478-0.412-0.001 0.39-0.002 0.779-0.003 1.169-3.424 0.172-6.846 0.384-10.265 0.639z"></path>
<path d="M46.289 6.029c-1.412 0.016-2.073 0.418-2.846 1.288-0.755 0.837-1.172 2.136-1.177 3.905-0.004 1.803 0.408 3.080 1.16 3.879 0.771 0.833 1.467 1.202 2.995 1.157 1.339-0.039 2.168-0.468 2.962-1.316 0.736-0.815 0.964-2.056 0.966-3.865 0.002-1.76-0.204-2.98-0.955-3.804-0.753-0.84-1.637-1.258-3.105-1.243zM46.288 17.426c-2.207 0.071-3.562-0.465-4.955-1.572-1.43-1.137-2.121-2.678-2.117-4.612 0.005-1.867 0.724-3.437 2.177-4.603 1.415-1.149 2.753-1.739 4.899-1.758 2.146-0.018 3.5 0.529 4.931 1.609 1.467 1.129 2.201 2.65 2.199 4.534-0.003 1.836-0.7 3.352-2.116 4.532-1.378 1.181-2.755 1.8-5.019 1.87z"></path>
<path d="M68.844 17.316c-2.965-3.432-5.927-6.795-8.884-10.144 0 2.279 0.001 4.558 0.001 6.837 0 0.972 0 1.944 0 2.916-0.434 0-0.868 0-1.302 0.001 0-0.972 0.001-1.944 0.001-2.916 0.001-2.015 0.001-4.029 0.001-6.043 0-1.048 0.001-2.095 0.001-3.143 0.897-0.001 1.794-0 2.692 0.001 2.355 2.709 4.712 5.428 7.072 8.184-0.003-1.916-0.005-3.833-0.008-5.749-0.001-0.804-0.002-1.607-0.003-2.41 0.471 0.003 0.942 0.006 1.412 0.009 0.002 0.848 0.003 1.697 0.003 2.545 0.005 3.312 0.010 6.624 0.015 9.937-0.333-0.008-0.667-0.016-1-0.023z"></path>
<path d="M75.347 17.507c-0.002-1.153-0.005-2.306-0.007-3.46-0.004-1.944-0.009-3.888-0.012-5.832-0.002-1.104-0.005-2.207-0.007-3.311 0.929 0.010 1.858 0.020 2.787 0.032 0.003 1.111 0.005 2.222 0.008 3.333 0.005 1.956 0.009 3.913 0.014 5.87 0.003 1.161 0.006 2.321 0.008 3.482-0.93-0.041-1.86-0.078-2.79-0.113z"></path>
<path d="M94.047 16.827c-0.488 0.525-1.144 0.911-1.954 1.163-0.827 0.251-1.768 0.336-2.821 0.261-1.243-0.087-2.317-0.362-3.204-0.806-0.905-0.445-1.547-1.003-1.945-1.681-0.397-0.661-0.626-1.529-0.553-2.536 0.030-0.408 0.074-7.12 0.071-8.215 0.922 0.015 1.845 0.030 2.767 0.047 0.004 1.105 0.007 2.21 0.010 3.315 0.004 1.269 0.007 2.538 0.011 3.808 0.002 0.646 0.004 1.207 0.024 1.684 0.019 0.46 0.040 0.801 0.097 1.042 0.114 0.482 0.379 0.887 0.908 1.276s1.282 0.624 2.261 0.688c0.754 0.049 1.449-0.023 2.051-0.243 0.639-0.216 1.089-0.499 1.352-0.847 0.3-0.363 0.506-0.735 0.561-1.098 0.074-0.432 0.184-1.108 0.182-2.053-0.005-1.412-0.009-2.824-0.014-4.235-0.003-1.062-0.006-2.124-0.010-3.186 0.433 0.010 0.866 0.020 1.298 0.030 0.004 1.12 0.007 2.241 0.011 3.362 0.005 1.391 0.009 2.781 0.013 4.172 0.003 1.092-0.107 1.894-0.199 2.415-0.111 0.608-0.486 1.161-0.917 1.637z"></path>
<path d="M119.27 21.333c-1.578-0.223-3.155-0.436-4.735-0.642-1.022-1.28-3.709-4.456-4.082-4.871-1.753-1.944-3.509-3.823-5.266-5.647-0.32 0.28-0.64 0.559-0.959 0.836 0.003 1.098 0.006 2.197 0.009 3.295 0.004 1.726 0.008 3.452 0.013 5.178-1.147-0.121-2.295-0.237-3.442-0.348-0.005-1.695-0.010-3.39-0.015-5.085-0.009-3.031-0.017-6.062-0.025-9.092-0.005-1.652-0.010-3.305-0.015-4.957 1.149 0 2.298 0 3.447 0 0.005 1.682 0.009 3.365 0.014 5.047 0.003 1.386 0.007 2.772 0.010 4.158 1.696-1.441 8.557-7.632 10.238-9.206 0.632 0 1.264 0 1.897 0-1.389 1.367-7.673 7.271-8.641 8.106 2.31 2.453 4.618 5.007 6.92 7.68 0.16 0.182 3.305 3.918 4.634 5.547z"></path>
<path d="M25.381 31.39c-0.408-0.412-0.611-0.949-0.611-1.6 0-0.43 0.096-0.836 0.281-1.218s0.45-0.675 0.791-0.866c0.335-0.186 0.701-0.275 1.102-0.275 0.329 0 0.629 0.066 0.905 0.203 0.258 0.131 0.455 0.275 0.623 0.472l0.018 0.126-0.281 0.274c-0.156-0.221-0.222-0.292-0.299-0.352-0.258-0.203-0.552-0.299-0.875-0.299-0.395 0-0.701 0.155-0.934 0.472-0.228 0.322-0.354 0.794-0.354 1.433 0 0.603 0.132 1.045 0.384 1.343 0.258 0.305 0.569 0.448 0.947 0.448 0.197 0 0.407-0.047 0.629-0.149 0.162-0.078 0.3-0.197 0.503-0.501l0.329 0.328c-0.473 0.537-0.977 0.77-1.588 0.77-0.629 0-1.156-0.203-1.569-0.609z"></path>
<path d="M37.873 31.999v-4.568h0.887v4.15h2.378v0.418h-3.265z"></path>
<path d="M50.461 31.999v-4.568h0.887v4.568h-0.887z"></path>
<path d="M64.29 31.999l-2.821-3.702v3.595h-0.413v-4.461h0.857l2.246 2.991v-2.991h0.45v4.568h-0.317z"></path>
<path d="M74.32 31.999v-4.568h0.887v4.568h-0.887z"></path>
<path d="M85.375 31.39c-0.408-0.412-0.611-0.949-0.611-1.6 0-0.43 0.096-0.836 0.281-1.218 0.186-0.382 0.45-0.675 0.791-0.866 0.335-0.186 0.701-0.275 1.102-0.275 0.329 0 0.629 0.066 0.905 0.203 0.258 0.131 0.456 0.275 0.623 0.472l0.018 0.126-0.281 0.274c-0.155-0.221-0.221-0.292-0.3-0.352-0.257-0.203-0.552-0.299-0.875-0.299-0.396 0-0.701 0.155-0.934 0.472-0.228 0.322-0.353 0.794-0.353 1.433 0 0.603 0.132 1.045 0.383 1.343 0.258 0.305 0.57 0.448 0.947 0.448 0.197 0 0.407-0.047 0.629-0.149 0.162-0.078 0.3-0.197 0.503-0.501l0.33 0.328c-0.473 0.537-0.977 0.77-1.588 0.77-0.629 0-1.156-0.203-1.569-0.609z"></path>
</symbol>
<symbol id="icon-facebook" viewBox="0 0 32 32">
<path d="M12 10.667c0-4.418 3.582-8 8-8h4c0.736 0 1.333 0.597 1.333 1.333v5.333c0 0.736-0.597 1.333-1.333 1.333h-4v1.333h4c0.411 0 0.798 0.189 1.051 0.513s0.342 0.746 0.242 1.144l-1.333 5.333c-0.148 0.594-0.682 1.010-1.294 1.010h-2.667v8c0 0.736-0.597 1.333-1.333 1.333h-5.333c-0.736 0-1.333-0.597-1.333-1.333v-8h-2.667c-0.736 0-1.333-0.597-1.333-1.333v-5.333c0-0.736 0.597-1.333 1.333-1.333h2.667v-1.333zM10.667 14.667v2.667h2.667c0.736 0 1.333 0.597 1.333 1.333v8h2.667v-8c0-0.736 0.597-1.333 1.333-1.333h2.959l0.667-2.667h-3.626c-0.736 0-1.333-0.597-1.333-1.333v-2.667c0-1.473 1.194-2.667 2.667-2.667h2.667v-2.667h-2.667c-2.945 0-5.333 2.388-5.333 5.333v2.667c0 0.736-0.597 1.333-1.333 1.333h-2.667z"></path>
</symbol>
<symbol id="icon-instagram" viewBox="0 0 32 32">
<path d="M4 10.667c0-3.682 2.985-6.667 6.667-6.667h10.667c3.682 0 6.667 2.985 6.667 6.667v10.667c0 3.682-2.985 6.667-6.667 6.667h-10.667c-3.682 0-6.667-2.985-6.667-6.667v-10.667zM10.667 6.667c-2.209 0-4 1.791-4 4v10.667c0 2.209 1.791 4 4 4h10.667c2.209 0 4-1.791 4-4v-10.667c0-2.209-1.791-4-4-4h-10.667z"></path>
<path d="M16 13.333c-1.473 0-2.667 1.194-2.667 2.667s1.194 2.667 2.667 2.667c1.473 0 2.667-1.194 2.667-2.667s-1.194-2.667-2.667-2.667zM10.667 16c0-2.945 2.388-5.333 5.333-5.333s5.333 2.388 5.333 5.333c0 2.946-2.388 5.333-5.333 5.333s-5.333-2.388-5.333-5.333z"></path>
<path d="M22 8.667c0.736 0 1.333 0.597 1.333 1.333v0.001c0 0.736-0.597 1.333-1.333 1.333s-1.333-0.597-1.333-1.333v-0.001c0-0.736 0.597-1.333 1.333-1.333z"></path>
</symbol>
<symbol id="icon-feather" viewBox="0 0 32 32">
<path d="M0 32c4-12 14.469-32 32-32-8.219 6.594-12 22-18 22s-6 0-6 0l-6 10h-2z"></path>
</symbol>
</defs>
</svg>
